<svg width="102" height="102" viewBox="0 0 102 102" fill="none" xmlns="http://www.w3.org/2000/svg">
<g clip-path="url(#clip0_837_2)">
<mask id="mask0_837_2" style="mask-type:luminance" maskUnits="userSpaceOnUse" x="0" y="0" width="102" height="102">
<path d="M102 0H0V102H102V0Z" fill="white"/>
</mask>
<g mask="url(#mask0_837_2)">
<path d="M8.72999 50.84C8.72999 52.98 8.88999 55.07 9.18999 57.12L16.96 52.59L24.43 48.23L50.83 32.83L77.24 48.24L84.71 52.59L92.48 57.12L100.49 61.8C99.84 64.75 98.93 67.6 97.79 70.33C96.89 72.51 95.84 74.61 94.65 76.62C85.8 91.61 69.47 101.68 50.84 101.68C32.21 101.68 16.63 92.05 7.64999 77.62L14.92 72.77C22.32 84.86 35.66 92.94 50.84 92.94C66.02 92.94 79.63 84.7 86.98 72.41C88.23 70.34 89.29 68.16 90.16 65.88L82.98 61.69L76.42 57.87L50.83 42.94L42.31 47.91L25.25 57.87L18.69 61.69L11.5 65.88L3.87999 70.33C2.73999 67.6 1.82999 64.74 1.17999 61.79C0.39999 58.26 -0.0100098 54.6 -0.0100098 50.84C-9.73139e-06 22.81 22.81 0 50.83 0C78.85 0 101.67 22.81 101.67 50.84C101.67 51.51 101.66 52.18 101.63 52.84L92.84 48.02C91.38 26.12 73.1 8.74 50.83 8.74C28.56 8.74 8.72999 27.62 8.72999 50.84Z" fill="#FF5600"/>
<path d="M50.83 77.38C38.63 77.38 28.33 69.1 25.25 57.87C24.63 55.63 24.3 53.28 24.3 50.84C24.3 49.96 24.34 49.09 24.43 48.23C25.75 34.81 37.08 24.3 50.83 24.3C60.63 24.3 69.21 29.64 73.81 37.57L83.87 43.09C80.36 28.1 66.88 16.92 50.84 16.92C32.14 16.92 16.92 32.14 16.92 50.85C16.92 51.44 16.93 52.03 16.97 52.6C17.13 55.76 17.73 58.81 18.7 61.7C19.47 64 20.49 66.19 21.72 68.24C27.65 78.14 38.48 84.78 50.84 84.78C63.2 84.78 73.85 78.25 79.81 68.5L73.32 64.94C68.62 72.42 60.3 77.39 50.84 77.39L50.83 77.38Z" fill="#064788"/>
<path d="M43.05 68.45C43.05 68.63 43.08 68.89 43.24 69.07C43.37 69.22 43.58 69.31 43.86 69.31H60.9V69.98H43.86C43.26 69.98 42.91 69.72 42.72 69.51C42.5 69.24 42.38 68.87 42.38 68.45C42.38 67.24 43.32 65.83 44.53 65.83H45.48L40.29 52H37.28V51.33H40.75L46.2 65.83H61.74V66.5H44.52C43.68 66.53 43.04 67.57 43.04 68.45H43.05Z" fill="#064788"/>
<path d="M43.24 53.13L47.3 64.58H61.51L64.84 53.13H43.24ZM61.02 63.91H47.78L44.2 53.81H63.96L62.56 58.61C60.8 59.33 60.11 59.4 59.54 58.96C59.19 58.68 58.9 58.31 58.63 57.95C58.25 57.47 57.87 56.96 57.31 56.68C56.1 56.06 55.04 56.3 53.82 57.47C53.43 57.21 52.97 57.09 52.49 57.11C51.91 57.14 51.37 57.4 50.99 57.84L49.67 59.32C48.86 60.22 48.94 61.6 49.84 62.4C50.25 62.76 50.76 62.96 51.3 62.96C51.34 62.96 51.38 62.96 51.42 62.96C52 62.93 52.54 62.67 52.93 62.23L54.25 60.75C54.97 59.95 54.98 58.75 54.32 57.94C55.46 56.84 56.21 56.89 57.01 57.29C57.43 57.5 57.75 57.93 58.1 58.37C58.4 58.77 58.71 59.17 59.13 59.51C59.5 59.8 59.89 59.93 60.35 59.93C60.88 59.93 61.51 59.76 62.33 59.45L61.03 63.93L61.02 63.91ZM52.39 59.87L53.79 58.35C54.25 58.92 54.24 59.75 53.74 60.3L52.42 61.78C52.15 62.08 51.78 62.26 51.38 62.28C50.98 62.3 50.59 62.17 50.28 61.9C49.66 61.34 49.61 60.38 50.16 59.76L51.49 58.28C51.76 57.98 52.13 57.8 52.53 57.78H52.62C52.9 57.78 53.18 57.86 53.42 58L52.02 59.53L52.4 59.87H52.39Z" fill="#064788"/>
<path d="M48.5802 74.19C47.7402 74.19 47.05 73.51 47.05 72.66C47.05 71.81 47.7302 71.13 48.5802 71.13C49.4302 71.13 50.1101 71.81 50.1101 72.66C50.1101 73.51 49.4302 74.19 48.5802 74.19ZM48.5802 71.64C48.0202 71.64 47.5602 72.1 47.5602 72.66C47.5602 73.22 48.0202 73.68 48.5802 73.68C49.1402 73.68 49.6 73.22 49.6 72.66C49.6 72.1 49.1402 71.64 48.5802 71.64Z" fill="#064788"/>
<path d="M56.51 74.19C55.67 74.19 54.98 73.51 54.98 72.66C54.98 71.81 55.66 71.13 56.51 71.13C57.36 71.13 58.04 71.81 58.04 72.66C58.04 73.51 57.36 74.19 56.51 74.19ZM56.51 71.64C55.95 71.64 55.49 72.1 55.49 72.66C55.49 73.22 55.95 73.68 56.51 73.68C57.07 73.68 57.53 73.22 57.53 72.66C57.53 72.1 57.07 71.64 56.51 71.64Z" fill="#064788"/>
</g>
</g>
<defs>
<clipPath id="clip0_837_2">
<rect width="102" height="102" fill="white"/>
</clipPath>
</defs>
</svg>
