<svg width="385" height="145" viewBox="0 0 385 145" fill="none" xmlns="http://www.w3.org/2000/svg">
<g clip-path="url(#clip0_209_2)">
<path d="M151.936 51.4945C151.936 53.573 152.091 55.6029 152.383 57.594L159.929 53.1942L167.185 48.9595L192.826 34.002L218.477 48.9692L225.732 53.1942L233.279 57.594L241.059 62.1395C240.427 65.0048 239.544 67.7729 238.436 70.4244C237.562 72.5418 236.542 74.5814 235.387 76.5336C226.791 91.0929 210.93 100.873 192.836 100.873C174.741 100.873 159.609 91.5202 150.887 77.5049L157.948 72.7943C165.135 84.5368 178.092 92.3847 192.836 92.3847C207.579 92.3847 220.798 84.3815 227.937 72.4446C229.151 70.4341 230.181 68.3168 231.026 66.1023L224.052 62.0327L217.681 58.3225L192.826 43.8215L184.551 48.6487L167.981 58.3225L161.61 62.0327L154.626 66.1023L147.225 70.4244C146.118 67.7729 145.234 64.995 144.603 62.1298C143.845 58.7013 143.447 55.1464 143.447 51.4945C143.457 24.27 165.611 2.11548 192.826 2.11548C220.041 2.11548 242.205 24.27 242.205 51.4945C242.205 52.1452 242.195 52.796 242.166 53.437L233.629 48.7555C232.211 27.4849 214.456 10.6043 192.826 10.6043C171.196 10.6043 151.936 28.9418 151.936 51.4945Z" fill="#FF5600"/>
<path d="M192.826 77.2718C180.977 77.2718 170.972 69.2297 167.981 58.3225C167.379 56.1468 167.058 53.8644 167.058 51.4945C167.058 50.6398 167.097 49.7948 167.185 48.9595C168.467 35.9251 179.471 25.7172 192.826 25.7172C202.344 25.7172 210.678 30.9037 215.146 38.6058L224.916 43.9672C221.507 29.408 208.415 18.5492 192.836 18.5492C174.673 18.5492 159.89 33.3319 159.89 51.5042C159.89 52.0772 159.9 52.6503 159.939 53.2039C160.094 56.2731 160.677 59.2354 161.619 62.0424C162.367 64.2763 163.358 66.4034 164.552 68.3945C170.312 78.01 180.831 84.4591 192.836 84.4591C204.84 84.4591 215.184 78.1168 220.973 68.647L214.67 65.1893C210.105 72.4543 202.024 77.2815 192.836 77.2815L192.826 77.2718Z" fill="#064788"/>
<path d="M185.269 68.5984C185.269 68.7732 185.299 69.0258 185.454 69.2006C185.58 69.3463 185.784 69.4337 186.056 69.4337H202.607V70.0845H186.056C185.473 70.0845 185.133 69.8319 184.949 69.628C184.735 69.3657 184.619 69.0064 184.619 68.5984C184.619 67.4232 185.532 66.0537 186.707 66.0537H187.63L182.589 52.6211H179.665V51.9704H183.036L188.329 66.0537H203.422V66.7045H186.697C185.881 66.7336 185.26 67.7437 185.26 68.5984H185.269Z" fill="#064788"/>
<path d="M185.454 53.7187L189.397 64.8396H203.199L206.433 53.7187H185.454ZM202.723 64.1889H189.864L186.386 54.3791H205.579L204.219 59.0412C202.509 59.7405 201.839 59.8085 201.286 59.3811C200.946 59.1092 200.664 58.7498 200.402 58.4002C200.033 57.934 199.664 57.4386 199.12 57.1667C197.944 56.5645 196.915 56.7976 195.73 57.934C195.351 57.6814 194.904 57.5649 194.438 57.5843C193.875 57.6134 193.35 57.866 192.981 58.2933L191.699 59.7308C190.912 60.6049 190.99 61.9453 191.864 62.7223C192.263 63.0719 192.758 63.2662 193.282 63.2662C193.321 63.2662 193.36 63.2662 193.399 63.2662C193.962 63.2371 194.487 62.9845 194.866 62.5572L196.148 61.1197C196.847 60.3427 196.857 59.1772 196.216 58.3905C197.323 57.3221 198.051 57.3706 198.828 57.7591C199.236 57.9631 199.547 58.3807 199.887 58.8081C200.178 59.1966 200.479 59.5851 200.887 59.9153C201.247 60.197 201.626 60.3233 202.072 60.3233C202.587 60.3233 203.199 60.1582 203.995 59.8571L202.733 64.2083L202.723 64.1889ZM194.341 60.265L195.701 58.7887C196.148 59.3423 196.138 60.1484 195.652 60.6826L194.37 62.1201C194.108 62.4115 193.749 62.5863 193.36 62.6057C192.972 62.6252 192.593 62.4989 192.292 62.2367C191.689 61.6927 191.641 60.7603 192.175 60.1582L193.467 58.7207C193.729 58.4293 194.089 58.2545 194.477 58.2351H194.564C194.836 58.2351 195.108 58.3128 195.341 58.4487L193.982 59.9348L194.351 60.265H194.341Z" fill="#064788"/>
<path d="M190.641 74.1735C189.825 74.1735 189.155 73.513 189.155 72.6874C189.155 71.8619 189.815 71.2014 190.641 71.2014C191.466 71.2014 192.127 71.8619 192.127 72.6874C192.127 73.513 191.466 74.1735 190.641 74.1735ZM190.641 71.6968C190.097 71.6968 189.65 72.1435 189.65 72.6874C189.65 73.2314 190.097 73.6781 190.641 73.6781C191.184 73.6781 191.631 73.2314 191.631 72.6874C191.631 72.1435 191.184 71.6968 190.641 71.6968Z" fill="#064788"/>
<path d="M198.343 74.1735C197.527 74.1735 196.857 73.513 196.857 72.6874C196.857 71.8619 197.517 71.2014 198.343 71.2014C199.168 71.2014 199.829 71.8619 199.829 72.6874C199.829 73.513 199.168 74.1735 198.343 74.1735ZM198.343 71.6968C197.799 71.6968 197.352 72.1435 197.352 72.6874C197.352 73.2314 197.799 73.6781 198.343 73.6781C198.887 73.6781 199.333 73.2314 199.333 72.6874C199.333 72.1435 198.887 71.6968 198.343 71.6968Z" fill="#064788"/>
<path d="M27.0022 139.151C26.2834 139.928 25.4773 140.666 24.5837 141.375C23.6901 142.084 22.7189 142.706 21.6699 143.25C20.6112 143.794 19.4749 144.221 18.2608 144.541C17.037 144.862 15.7452 145.017 14.3854 145.017C12.1612 145.017 10.1507 144.677 8.3539 143.998C6.54735 143.318 5.01276 142.337 3.73069 141.045C2.45834 139.753 1.45793 138.189 0.758624 136.344C0.0496022 134.499 -0.300049 132.41 -0.300049 130.079C-0.300049 127.748 0.0981669 125.553 0.904315 123.65C1.71046 121.746 2.74 120.143 3.98322 118.822C5.22643 117.502 6.59591 116.501 8.08195 115.802C9.56798 115.112 10.986 114.763 12.3458 114.763C13.3753 114.763 14.2689 114.889 15.0265 115.141C15.7841 115.394 16.4348 115.676 16.9593 115.996C17.4838 116.317 17.8917 116.637 18.1928 116.948C18.4842 117.268 18.6687 117.482 18.7561 117.589L19.7177 115.258H26.2543V127.078H18.8047C18.7756 126.408 18.6687 125.757 18.4745 125.126C18.2802 124.485 18.0083 123.922 17.6586 123.436C17.309 122.95 16.8719 122.562 16.328 122.27C15.7841 121.979 15.143 121.833 14.3952 121.833C13.6473 121.833 12.9674 122.047 12.3555 122.474C11.7436 122.902 11.2288 123.494 10.7918 124.242C10.3644 124.99 10.0245 125.864 9.79137 126.864C9.55827 127.865 9.432 128.933 9.432 130.07C9.432 131.099 9.56798 132.08 9.83022 133.022C10.0925 133.964 10.481 134.8 10.9957 135.518C11.5105 136.237 12.1418 136.82 12.8897 137.247C13.6376 137.675 14.5117 137.888 15.5121 137.888C16.3765 137.888 17.1924 137.694 17.9694 137.306C18.7464 136.917 19.4263 136.48 20.0091 135.994C20.5918 135.509 21.0677 135.052 21.4465 134.625C21.8253 134.198 22.0487 133.926 22.1361 133.809L27.0022 139.141V139.151Z" fill="#064788"/>
<path d="M28.663 115.258H42.1441V120.755H39.5605V127.039H47.4666V120.755H45.0093V115.258H58.539V120.755H56.1206V138.86H58.539V144.357H45.0093V138.86H47.4666V132.576H39.5605V138.86H42.1441V144.357H28.663V138.86H30.9551V120.755H28.663V115.258Z" fill="#064788"/>
<path d="M93.2132 144.357H76.5269V138.908H80.48L79.6058 136.082H71.0782L70.204 138.908H73.448V144.357H60.2097V138.908H63.0361L68.65 120.639H66.9406V115.268H82.9276L90.2994 138.908H93.2132V144.357ZM72.6127 131.08H78.0615L75.3129 122.086L72.603 131.08H72.6127Z" fill="#064788"/>
<path d="M94.8837 115.258H108.365V120.755H105.781V127.039H113.687V120.755H111.23V115.258H124.76V120.755H122.341V138.86H124.76V144.357H111.23V138.86H113.687V132.576H105.781V138.86H108.365V144.357H94.8837V138.86H97.1758V120.755H94.8837V115.258Z" fill="#064788"/>
<path d="M159.434 144.357H142.748V138.908H146.701L145.826 136.082H137.299L136.425 138.908H139.669V144.357H126.43V138.908H129.257L134.871 120.639H133.161V115.268H149.148L156.52 138.908H159.434V144.357ZM138.833 131.08H144.282L141.533 122.086L138.824 131.08H138.833Z" fill="#064788"/>
<path d="M192.972 120.629H190.223V144.357H181.278L170.662 128.496V138.986H173.867V144.357H161.095V138.986H163.552V120.629H161.134V115.258H173.08L183.317 130.536V120.629H180.442V115.258H192.972V120.629Z" fill="#064788"/>
<path d="M227.646 144.357H210.959V138.908H214.912L214.038 136.082H205.511L204.636 138.908H207.88V144.357H194.642V138.908H197.468L203.082 120.639H201.373V115.268H217.36L224.732 138.908H227.646V144.357ZM207.045 131.08H212.494L209.745 122.086L207.035 131.08H207.045Z" fill="#064788"/>
<path d="M239.709 144.357V133.867H247.45C247.45 134.732 247.644 135.431 248.032 135.965C248.421 136.509 248.887 136.927 249.431 137.238C249.975 137.548 250.538 137.752 251.141 137.859C251.733 137.966 252.257 138.024 252.704 138.024C253.064 138.024 253.452 137.995 253.87 137.937C254.287 137.879 254.666 137.781 255.016 137.626C255.366 137.471 255.657 137.267 255.89 137.004C256.123 136.742 256.24 136.383 256.24 135.946C256.24 135.421 255.841 134.984 255.055 134.635C254.268 134.285 253.277 133.945 252.102 133.615C250.927 133.285 249.645 132.896 248.256 132.469C246.867 132.041 245.585 131.449 244.41 130.701C243.225 129.953 242.244 129.001 241.457 127.855C240.67 126.699 240.272 125.242 240.272 123.465C240.272 121.94 240.593 120.61 241.253 119.473C241.914 118.337 242.72 117.404 243.71 116.686C244.691 115.967 245.76 115.423 246.916 115.064C248.071 114.704 249.159 114.52 250.179 114.52C251.043 114.52 251.898 114.597 252.763 114.743C253.627 114.899 254.443 115.141 255.22 115.472C255.997 115.802 256.696 116.239 257.318 116.783C257.939 117.327 258.464 117.987 258.881 118.754L259.299 115.258H266.457V125.699H258.92C258.92 124.922 258.784 124.232 258.503 123.64C258.221 123.047 257.842 122.533 257.357 122.125C256.871 121.707 256.298 121.396 255.647 121.192C254.996 120.988 254.307 120.882 253.588 120.882C253.287 120.882 252.967 120.93 252.636 121.027C252.306 121.124 251.995 121.26 251.704 121.445C251.412 121.629 251.179 121.853 250.995 122.134C250.81 122.406 250.723 122.727 250.723 123.086C250.723 123.805 251.131 124.407 251.956 124.873C252.772 125.349 253.792 125.786 255.016 126.204C256.24 126.622 257.551 127.068 258.969 127.554C260.387 128.04 261.698 128.642 262.922 129.361C264.146 130.079 265.166 130.983 265.981 132.07C266.797 133.149 267.205 134.508 267.205 136.15C267.205 137.791 266.865 139.161 266.185 140.268C265.505 141.375 264.631 142.288 263.563 142.997C262.495 143.706 261.31 144.211 260.008 144.512C258.707 144.823 257.425 144.969 256.181 144.969C255.123 144.969 254.151 144.862 253.268 144.639C252.384 144.415 251.578 144.124 250.849 143.764C250.13 143.405 249.48 142.997 248.916 142.541C248.353 142.084 247.867 141.618 247.479 141.142L247.022 144.347H239.738L239.709 144.357Z" fill="#FF5600"/>
<path d="M296.77 115.258V126.078H290.651V120.746H287.155V138.811H290.613V144.347H275.131V138.811H278.54V120.746H274.956V126.078H268.837V115.258H296.761H296.77Z" fill="#FF5600"/>
<path d="M312.923 145.105C310.757 145.105 308.756 144.784 306.93 144.153C305.094 143.512 303.521 142.56 302.21 141.278C300.898 139.996 299.869 138.403 299.131 136.47C298.393 134.537 298.023 132.274 298.023 129.662C298.023 127.418 298.383 125.359 299.082 123.504C299.791 121.649 300.792 120.046 302.083 118.696C303.375 117.356 304.91 116.307 306.707 115.578C308.494 114.84 310.475 114.471 312.641 114.471C315.195 114.471 317.41 114.84 319.284 115.578C321.159 116.317 322.713 117.356 323.946 118.696C325.18 120.046 326.093 121.668 326.695 123.591C327.288 125.505 327.589 127.632 327.589 129.963C327.589 132.294 327.268 134.44 326.637 136.305C326.006 138.17 325.054 139.763 323.81 141.074C322.558 142.376 321.033 143.376 319.207 144.075C317.39 144.765 315.302 145.115 312.942 145.115L312.923 145.105ZM312.923 138.568C313.593 138.568 314.176 138.364 314.69 137.947C315.205 137.529 315.652 136.946 316.021 136.198C316.4 135.45 316.681 134.547 316.876 133.488C317.07 132.44 317.167 131.255 317.167 129.953C317.167 128.652 317.08 127.496 316.895 126.398C316.711 125.301 316.439 124.349 316.06 123.523C315.681 122.707 315.205 122.057 314.622 121.591C314.04 121.115 313.35 120.881 312.544 120.881C311.903 120.881 311.33 121.095 310.815 121.523C310.3 121.95 309.863 122.552 309.484 123.329C309.115 124.106 308.814 125.039 308.61 126.117C308.406 127.195 308.299 128.38 308.299 129.652C308.299 131.012 308.416 132.236 308.659 133.333C308.892 134.431 309.212 135.363 309.611 136.14C310.009 136.917 310.494 137.51 311.067 137.927C311.641 138.345 312.252 138.549 312.923 138.549V138.568Z" fill="#FF5600"/>
<path d="M329.23 115.258H342.76C345.178 115.258 347.13 115.481 348.626 115.928C350.122 116.375 351.297 116.987 352.142 117.754C352.987 118.531 353.56 119.444 353.852 120.483C354.143 121.523 354.289 122.639 354.289 123.834C354.289 124.64 354.133 125.388 353.832 126.078C353.531 126.767 353.104 127.379 352.56 127.884C352.016 128.399 351.384 128.826 350.646 129.176C349.908 129.526 349.112 129.749 348.257 129.866C348.976 129.973 349.665 130.206 350.316 130.555C350.967 130.905 351.54 131.342 352.045 131.866C352.54 132.391 352.948 132.993 353.249 133.654C353.55 134.324 353.706 135.023 353.706 135.771C353.706 136.665 353.774 137.354 353.91 137.849C354.046 138.345 354.308 138.597 354.696 138.597C355.338 138.597 355.658 138.151 355.658 137.267V135.897H358.446V138.189C358.446 139.054 358.348 139.879 358.154 140.686C357.96 141.492 357.63 142.201 357.154 142.813C356.678 143.425 356.056 143.91 355.279 144.289C354.502 144.668 353.531 144.852 352.365 144.852C349.617 144.852 347.587 144.172 346.266 142.813C344.945 141.453 344.285 139.549 344.285 137.111C344.285 136.169 344.246 135.392 344.158 134.78C344.071 134.168 343.886 133.692 343.595 133.343C343.304 132.993 342.876 132.75 342.323 132.614C341.769 132.478 341.031 132.41 340.118 132.41V138.86H342.653V144.357H329.211V138.86H331.542V120.716H329.211V115.268L329.23 115.258ZM340.137 120.668V127.739H342.012C343.236 127.739 344.207 127.457 344.926 126.884C345.644 126.321 346.004 125.476 346.004 124.368C346.004 123.125 345.673 122.193 345.023 121.581C344.372 120.969 343.43 120.668 342.216 120.668H340.137Z" fill="#FF5600"/>
<path d="M359.902 115.258H385V124.456H377.803V120.755H371.14V126.495H379.046V132.032H371.14V138.821H377.803V134.945H385V144.347H359.902V138.811H362.525V120.746H359.902V115.248V115.258Z" fill="#FF5600"/>
</g>
<defs>
<clipPath id="clip0_209_2">
<rect width="385" height="145" fill="white"/>
</clipPath>
</defs>
</svg>
