<svg width="95" height="95" viewBox="0 0 95 95" fill="none" xmlns="http://www.w3.org/2000/svg">
<g clip-path="url(#clip0_209_23)">
<path d="M8.13067 47.351C8.13067 49.3441 8.27969 51.2907 8.55911 53.2L15.7959 48.9809L22.7532 44.9201L47.3415 30.577L71.939 44.9294L78.8964 48.9809L86.1331 53.2L93.5934 57.5588C92.988 60.3064 92.1405 62.9608 91.0787 65.5034C90.2405 67.5338 89.2625 69.4897 88.1542 71.3618C79.9116 85.323 64.7022 94.702 47.3508 94.702C29.9993 94.702 15.4885 85.7328 7.12479 72.2931L13.8959 67.776C20.788 79.0363 33.2125 86.5618 47.3508 86.5618C61.489 86.5618 74.165 78.8873 81.0106 67.4407C82.1748 65.5127 83.1621 63.4823 83.9723 61.3588L77.2851 57.4564L71.1753 53.8985L47.3415 39.9931L39.4062 44.6221L23.5169 53.8985L17.4071 57.4564L10.7106 61.3588L3.61352 65.5034C2.55175 62.9608 1.7042 60.2971 1.09881 57.5495C0.372341 54.2618 -0.00952148 50.8529 -0.00952148 47.351C-0.000207759 21.2446 21.2444 0 47.3415 0C73.4385 0 94.6924 21.2446 94.6924 47.351C94.6924 47.975 94.6831 48.599 94.6552 49.2137L86.4684 44.7245C85.1086 24.3275 68.0831 8.1402 47.3415 8.1402C26.5998 8.1402 8.13067 25.7245 8.13067 47.351Z" fill="#FF5600"/>
<path d="M47.3416 72.0696C35.9789 72.0696 26.3857 64.3578 23.5171 53.8985C22.9397 51.8122 22.6323 49.6235 22.6323 47.351C22.6323 46.5314 22.6696 45.7211 22.7534 44.9201C23.9828 32.4211 34.5353 22.6323 47.3416 22.6323C56.4691 22.6323 64.4603 27.6059 68.7446 34.9917L78.1142 40.1328C74.8451 26.1716 62.2902 15.7588 47.3509 15.7588C29.9343 15.7588 15.7588 29.9343 15.7588 47.3603C15.7588 47.9098 15.7681 48.4593 15.8054 48.9902C15.9544 51.9333 16.5132 54.774 17.4166 57.4657C18.1338 59.6078 19.0838 61.6475 20.2294 63.5569C25.7524 72.7774 35.8392 78.9618 47.3509 78.9618C58.8627 78.9618 68.7818 72.8799 74.3328 63.799L68.2882 60.4833C63.9108 67.45 56.1617 72.0789 47.3509 72.0789L47.3416 72.0696Z" fill="#064788"/>
<path d="M40.0956 63.7525C40.0956 63.9201 40.1235 64.1623 40.2725 64.3299C40.3936 64.4696 40.5892 64.5534 40.85 64.5534H56.7206V65.1775H40.85C40.2912 65.1775 39.9652 64.9353 39.7882 64.7397C39.5833 64.4882 39.4716 64.1436 39.4716 63.7525C39.4716 62.6255 40.347 61.3123 41.474 61.3123H42.3588L37.525 48.4314H34.7216V47.8074H37.9534L43.0294 61.3123H57.5029V61.9363H41.4647C40.6823 61.9642 40.0863 62.9328 40.0863 63.7525H40.0956Z" fill="#064788"/>
<path d="M40.2726 49.4838L44.054 60.148H57.2888L60.3902 49.4838H40.2726ZM56.8324 59.524H44.501L41.1667 50.1172H59.5706L58.2667 54.5877C56.6275 55.2583 55.9848 55.3235 55.454 54.9137C55.128 54.6529 54.8579 54.3083 54.6064 53.973C54.2525 53.526 53.8986 53.051 53.377 52.7902C52.25 52.2127 51.2628 52.4363 50.1265 53.526C49.7633 53.2838 49.3348 53.1721 48.8878 53.1907C48.3476 53.2186 47.8446 53.4608 47.4907 53.8706L46.2613 55.249C45.5069 56.0873 45.5814 57.3726 46.4196 58.1176C46.8015 58.4529 47.2765 58.6392 47.7794 58.6392C47.8167 58.6392 47.854 58.6392 47.8912 58.6392C48.4314 58.6113 48.9343 58.3691 49.2976 57.9593L50.527 56.5809C51.1976 55.8358 51.2069 54.7181 50.5922 53.9637C51.654 52.9392 52.3525 52.9858 53.0976 53.3583C53.4888 53.5539 53.7868 53.9544 54.1128 54.3642C54.3922 54.7368 54.6809 55.1093 55.0721 55.426C55.4167 55.6961 55.7799 55.8172 56.2084 55.8172C56.702 55.8172 57.2888 55.6588 58.0525 55.3701L56.8417 59.5426L56.8324 59.524ZM48.7946 55.7613L50.0986 54.3456C50.527 54.8765 50.5177 55.6495 50.052 56.1618L48.8226 57.5402C48.5711 57.8196 48.2265 57.9873 47.854 58.0059C47.4814 58.0245 47.1182 57.9034 46.8294 57.652C46.252 57.1304 46.2054 56.2363 46.7177 55.6588L47.9564 54.2804C48.2079 54.001 48.5525 53.8333 48.925 53.8147H49.0089C49.2696 53.8147 49.5304 53.8892 49.754 54.0196L48.45 55.4446L48.804 55.7613H48.7946Z" fill="#064788"/>
<path d="M45.246 69.0985C44.4637 69.0985 43.821 68.4652 43.821 67.6735C43.821 66.8819 44.4544 66.2485 45.246 66.2485C46.0377 66.2485 46.671 66.8819 46.671 67.6735C46.671 68.4652 46.0377 69.0985 45.246 69.0985ZM45.246 66.7235C44.7245 66.7235 44.296 67.152 44.296 67.6735C44.296 68.1951 44.7245 68.6235 45.246 68.6235C45.7676 68.6235 46.196 68.1951 46.196 67.6735C46.196 67.152 45.7676 66.7235 45.246 66.7235Z" fill="#064788"/>
<path d="M52.6318 69.0985C51.8494 69.0985 51.2068 68.4652 51.2068 67.6735C51.2068 66.8819 51.8401 66.2485 52.6318 66.2485C53.4235 66.2485 54.0568 66.8819 54.0568 67.6735C54.0568 68.4652 53.4235 69.0985 52.6318 69.0985ZM52.6318 66.7235C52.1102 66.7235 51.6818 67.152 51.6818 67.6735C51.6818 68.1951 52.1102 68.6235 52.6318 68.6235C53.1534 68.6235 53.5818 68.1951 53.5818 67.6735C53.5818 67.152 53.1534 66.7235 52.6318 66.7235Z" fill="#064788"/>
</g>
<defs>
<clipPath id="clip0_209_23">
<rect width="95" height="95" fill="white"/>
</clipPath>
</defs>
</svg>
